<svg width="30" height="30" viewBox="0 0 30 30" fill="none" xmlns="http://www.w3.org/2000/svg">
<path d="M24.1666 28.8333C25.4043 28.8333 26.5913 28.3417 27.4665 27.4665C28.3416 26.5913 28.8333 25.4043 28.8333 24.1666C28.8333 22.929 28.3416 21.742 27.4665 20.8668C26.5913 19.9916 25.4043 19.5 24.1666 19.5C22.929 19.5 21.742 19.9916 20.8668 20.8668C19.9916 21.742 19.5 22.929 19.5 24.1666C19.5 25.4043 19.9916 26.5913 20.8668 27.4665C21.742 28.3417 22.929 28.8333 24.1666 28.8333ZM27.9379 27.9379C26.9377 28.9381 25.5811 29.5 24.1666 29.5C22.7522 29.5 21.3956 28.9381 20.3954 27.9379C19.3952 26.9377 18.8333 25.5811 18.8333 24.1666C18.8333 22.7522 19.3952 21.3956 20.3954 20.3954C21.3956 19.3952 22.7522 18.8333 24.1666 18.8333C25.5811 18.8333 26.9377 19.3952 27.9379 20.3954C28.9381 21.3956 29.5 22.7522 29.5 24.1666C29.5 25.5811 28.9381 26.9377 27.9379 27.9379Z" fill="#2C96FB" stroke="#2C96FB"/>
<path d="M24.5 23.8217V24.0288L24.6465 24.1752L25.2319 24.7606C25.2911 24.8232 25.3239 24.9064 25.3231 24.9927C25.3224 25.0801 25.2873 25.1637 25.2255 25.2255C25.1637 25.2873 25.0801 25.3223 24.9927 25.3231C24.9064 25.3238 24.8233 25.2911 24.7607 25.2318L23.8334 24.3046V22.0833C23.8334 21.9949 23.8685 21.9101 23.931 21.8476C23.9935 21.7851 24.0783 21.75 24.1667 21.75C24.2551 21.75 24.3399 21.7851 24.4024 21.8476C24.4649 21.9101 24.5 21.9949 24.5 22.0833V23.8217Z" fill="#2C96FB" stroke="#2C96FB"/>
<path d="M7.16665 14.1667V13.6667H6.66665H4.99998H4.49998V14.1667V15.8333V16.3333H4.99998H6.66665H7.16665V15.8333V14.1667ZM4.17502 13.3417C4.39381 13.1229 4.69056 13 4.99998 13H6.66665C6.97606 13 7.27281 13.1229 7.4916 13.3417C7.7104 13.5605 7.83331 13.8572 7.83331 14.1667V15.8333C7.83331 16.1428 7.7104 16.4395 7.4916 16.6583C7.27281 16.8771 6.97606 17 6.66665 17H4.99998C4.69056 17 4.39381 16.8771 4.17502 16.6583C3.95623 16.4395 3.83331 16.1428 3.83331 15.8333V14.1667C3.83331 13.8572 3.95623 13.5605 4.17502 13.3417Z" fill="#2C96FB" stroke="#2C96FB"/>
<path d="M13.8334 14.1667V13.6667H13.3334H11.6667H11.1667V14.1667V15.8333V16.3333H11.6667H13.3334H13.8334V15.8333V14.1667ZM10.8418 13.3417C11.0606 13.1229 11.3573 13 11.6667 13H13.3334C13.6428 13 13.9396 13.1229 14.1584 13.3417C14.3771 13.5605 14.5001 13.8572 14.5001 14.1667V15.8333C14.5001 16.1428 14.3771 16.4395 14.1584 16.6583C13.9396 16.8771 13.6428 17 13.3334 17H11.6667C11.3573 17 11.0606 16.8771 10.8418 16.6583C10.623 16.4395 10.5001 16.1428 10.5001 15.8333V14.1667C10.5001 13.8572 10.623 13.5605 10.8418 13.3417Z" fill="#2C96FB" stroke="#2C96FB"/>
<path d="M20.5 14.1667V13.6667H20H18.3333H17.8333V14.1667V15.8333V16.3333H18.3333H20H20.5V15.8333V14.1667ZM17.5083 13.3417C17.7271 13.1229 18.0239 13 18.3333 13H20C20.3094 13 20.6061 13.1229 20.8249 13.3417C21.0437 13.5605 21.1666 13.8572 21.1666 14.1667V15.8333C21.1666 16.1428 21.0437 16.4395 20.8249 16.6583C20.6061 16.8771 20.3094 17 20 17H18.3333C18.0239 17 17.7271 16.8771 17.5083 16.6583C17.2895 16.4395 17.1666 16.1428 17.1666 15.8333V14.1667C17.1666 13.8572 17.2895 13.5605 17.5083 13.3417Z" fill="#2C96FB" stroke="#2C96FB"/>
<path d="M7.16665 20.8334V20.3334H6.66665H4.99998H4.49998V20.8334V22.5V23H4.99998H6.66665H7.16665V22.5V20.8334ZM4.17502 20.0084C4.39381 19.7896 4.69056 19.6667 4.99998 19.6667H6.66665C6.97606 19.6667 7.27281 19.7896 7.4916 20.0084C7.7104 20.2272 7.83331 20.5239 7.83331 20.8334V22.5C7.83331 22.8094 7.7104 23.1062 7.4916 23.325C7.27281 23.5438 6.97607 23.6667 6.66665 23.6667H4.99998C4.69056 23.6667 4.39381 23.5438 4.17502 23.325C3.95623 23.1062 3.83331 22.8094 3.83331 22.5V20.8334C3.83331 20.5239 3.95623 20.2272 4.17502 20.0084Z" fill="#2C96FB" stroke="#2C96FB"/>
<path d="M13.8334 20.8334V20.3334H13.3334H11.6667H11.1667V20.8334V22.5V23H11.6667H13.3334H13.8334V22.5V20.8334ZM10.8418 20.0084C11.0606 19.7896 11.3573 19.6667 11.6667 19.6667H13.3334C13.6428 19.6667 13.9396 19.7896 14.1584 20.0084C14.3771 20.2272 14.5001 20.5239 14.5001 20.8334V22.5C14.5001 22.8094 14.3771 23.1062 14.1584 23.325C13.9396 23.5438 13.6428 23.6667 13.3334 23.6667H11.6667C11.3573 23.6667 11.0606 23.5438 10.8418 23.325C10.623 23.1062 10.5001 22.8094 10.5001 22.5V20.8334C10.5001 20.5239 10.623 20.2272 10.8418 20.0084Z" fill="#2C96FB" stroke="#2C96FB"/>
<path d="M1.55719 4.05719C1.30714 4.30724 1.16667 4.64638 1.16667 5V25C1.16667 25.3536 1.30714 25.6928 1.55719 25.9428C1.80724 26.1929 2.14638 26.3333 2.5 26.3333H18.214C18.2969 26.561 18.3928 26.7836 18.5012 27H2.5C1.96957 27 1.46086 26.7893 1.08579 26.4142C0.710713 26.0391 0.5 25.5304 0.5 25V5C0.5 4.46957 0.710714 3.96086 1.08579 3.58579C1.46086 3.21071 1.96957 3 2.5 3H6.16667V3.66667H2.5C2.14638 3.66667 1.80724 3.80714 1.55719 4.05719ZM24.5 17.8411C24.2779 17.8295 24.0554 17.8295 23.8333 17.8411V5C23.8333 4.64638 23.6929 4.30724 23.4428 4.05719C23.1928 3.80714 22.8536 3.66667 22.5 3.66667H20.5V3H22.5C23.0304 3 23.5391 3.21071 23.9142 3.58579C24.2893 3.96086 24.5 4.46957 24.5 5V17.8411ZM16.6358 3V3.66667H8.83333V3H16.6358Z" fill="#2C96FB" stroke="#2C96FB"/>
<path d="M8.83331 5V3H17.8333V5C17.8333 5.35362 17.9738 5.69276 18.2238 5.94281C18.4739 6.19286 18.813 6.33333 19.1666 6.33333C19.5203 6.33333 19.8594 6.19286 20.1095 5.94281C20.3595 5.69276 20.5 5.35362 20.5 5V3H22.5C22.8094 3 23.1061 3.12292 23.3249 3.34171C23.5437 3.5605 23.6666 3.85725 23.6666 4.16667V8.33333C23.6666 8.64275 23.5437 8.9395 23.3249 9.15829C23.1061 9.37708 22.8094 9.5 22.5 9.5H2.49998C2.19056 9.5 1.89381 9.37708 1.67502 9.15829C1.45623 8.9395 1.33331 8.64275 1.33331 8.33333V4.16667C1.33331 3.85725 1.45623 3.5605 1.67502 3.34171C1.89381 3.12292 2.19056 3 2.49998 3H6.16665V5C6.16665 5.35362 6.30712 5.69276 6.55717 5.94281C6.80722 6.19286 7.14636 6.33333 7.49998 6.33333C7.8536 6.33333 8.19274 6.19286 8.44279 5.94281C8.69284 5.69276 8.83331 5.35362 8.83331 5Z" fill="#2C96FB" stroke="#2C96FB"/>
<path d="M24.5 9.49998H2.16663V8.83331H24.5V9.49998Z" fill="#2C96FB" stroke="#2C96FB"/>
<path d="M5.49994 0.833333C5.49994 0.744928 5.53506 0.660143 5.59757 0.597631C5.66008 0.535119 5.74487 0.5 5.83327 0.5C5.92168 0.5 6.00646 0.535119 6.06897 0.597631C6.13148 0.660143 6.1666 0.744928 6.1666 0.833333V4.16667C6.1666 4.25507 6.13148 4.33986 6.06897 4.40237C6.00646 4.46488 5.92168 4.5 5.83327 4.5C5.74487 4.5 5.66008 4.46488 5.59757 4.40237C5.53506 4.33986 5.49994 4.25507 5.49994 4.16667V0.833333Z" fill="#2C96FB" stroke="#2C96FB"/>
<path d="M17.1666 0.833333C17.1666 0.744927 17.2017 0.660143 17.2643 0.597631C17.3268 0.535119 17.4116 0.5 17.5 0.5C17.5884 0.5 17.6732 0.535119 17.7357 0.597631C17.7982 0.660143 17.8333 0.744927 17.8333 0.833333V4.16667C17.8333 4.25507 17.7982 4.33986 17.7357 4.40237L18.0892 4.75592L17.7357 4.40237C17.6732 4.46488 17.5884 4.5 17.5 4.5C17.4116 4.5 17.3268 4.46488 17.2643 4.40237C17.2017 4.33986 17.1666 4.25507 17.1666 4.16667V0.833333Z" fill="#2C96FB" stroke="#2C96FB"/>
</svg>
