<svg width="19" height="40" viewBox="0 0 19 40" fill="none" xmlns="http://www.w3.org/2000/svg">
<path fill-rule="evenodd" clip-rule="evenodd" d="M4.14196 19.8296V38.8723C4.14196 39.1083 4.38561 39.3444 4.62925 39.3444H11.9386C12.1822 39.3444 12.4259 39.1083 12.4259 38.8723V19.5148H17.7049C17.9485 19.5148 18.1921 19.2788 18.1921 19.0427L18.6794 13.2197C18.6794 12.905 18.4358 12.6689 18.1921 12.6689H12.4259V8.49839C12.4259 7.55412 13.238 6.76724 14.2126 6.76724H18.2734C18.517 6.76724 18.7606 6.53117 18.7606 6.2951V0.472133C18.9231 0.236066 18.6794 0 18.3546 0H11.4513C7.39056 0 4.14196 3.14755 4.14196 7.08199V12.6689H0.48729C0.243645 12.6689 0 12.905 0 13.141V18.964C0 19.2001 0.243645 19.4361 0.48729 19.4361H4.14196V19.8296Z" fill="white"/>
</svg>
