<?xml version="1.0" encoding="utf-8"?>
<!-- Generator: Adobe Illustrator 16.0.0, SVG Export Plug-In . SVG Version: 6.00 Build 0)  -->
<!DOCTYPE svg PUBLIC "-//W3C//DTD SVG 1.1//EN" "http://www.w3.org/Graphics/SVG/1.1/DTD/svg11.dtd">
<svg version="1.1" id="Capa_1" xmlns="http://www.w3.org/2000/svg" xmlns:xlink="http://www.w3.org/1999/xlink" x="0px" y="0px"
	 width="500px" height="500px" viewBox="150 0 500 500" enable-background="new 150 0 500 500" xml:space="preserve">
<rect fill="#74ACDF" width="800" height="500"/>
<rect y="166.67" fill="#FFFFFF" width="800" height="166.67"/>
<g id="rays">
	<path id="ray1" fill="#F6B40E" stroke="#85340A" stroke-width="1.1116" d="M396.84,251.311l28.454,61.991
		c0,0,0.489,1.186,1.28,0.858c0.79-0.326,0.299-1.511,0.299-1.511l-23.715-63.957 M402.479,272.813
		c-0.348,9.428,5.452,14.613,4.693,23.033c-0.757,8.419,3.867,13.18,4.939,16.453c1.074,3.274-1.16,5.232-0.197,5.698
		c0.963,0.467,3.07-2.12,2.383-6.775c-0.687-4.655-4.221-6.037-3.39-16.319c0.83-10.283-4.206-12.679-2.979-22.059"/>
	<g transform="rotate(22.5 400,250)">
		<path id="ray1_1_" fill="#F6B40E" stroke="#85340A" stroke-width="1.1116" d="M396.579,250.001l2.565,68.162
			c0,0-0.001,1.282,0.854,1.283c0.855,0,0.854-1.282,0.854-1.282l2.565-68.163 M393.559,272.025
			c-3.928,8.577-0.555,15.586-4.477,23.074c-3.921,7.49-1.471,13.657-1.733,17.092c-0.262,3.437-3.074,4.391-2.364,5.189
			c0.712,0.799,3.648-0.785,4.795-5.348c1.147-4.563-1.589-7.193,3.114-16.375c4.702-9.184,0.966-13.322,5.688-21.52"/>
	</g>
	<g transform="rotate(45 400,250)">
		<path id="ray1_2_" fill="#F6B40E" stroke="#85340A" stroke-width="1.1116" d="M396.839,248.692l-23.715,63.955
			c0,0-0.492,1.185,0.298,1.513c0.79,0.327,1.28-0.857,1.28-0.857l28.455-61.993 M385.621,267.883
			c-6.911,6.422-6.477,14.189-12.966,19.605c-6.489,5.419-6.585,12.055-8.142,15.128c-1.557,3.074-4.52,2.88-4.169,3.89
			c0.352,1.011,3.67,0.671,6.477-3.106c2.806-3.776,1.284-7.253,9.143-13.937c7.858-6.685,5.991-11.939,13.49-17.705"/>
	</g>
	<g transform="rotate(67.5 400,250)">
		<path id="ray1_3_" fill="#F6B40E" stroke="#85340A" stroke-width="1.1116" d="M397.581,247.582l-46.384,50.012
			c0,0-0.908,0.905-0.304,1.511c0.604,0.604,1.511-0.303,1.511-0.303l50.012-46.384 M379.872,261.02
			c-8.843,3.287-11.414,10.629-19.482,13.15c-8.068,2.523-10.697,8.617-13.311,10.861s-5.278,0.93-5.34,1.997
			c-0.062,1.068,3.134,2.024,7.172-0.392c4.038-2.415,3.962-6.209,13.781-9.377c9.818-3.168,10.103-8.737,19.238-11.194"/>
	</g>
	<path id="ray2" fill="#85340A" d="M404.311,274.41c0.453,9.054,5.586,13.063,4.578,21.314c2.213-6.525-3.123-11.584-2.82-21.221
		 M398.42,250.747l19.487,42.577l-16.329-43.887"/>
	<g transform="rotate(22.5 400,250)">
		<path id="ray2_1_" fill="#85340A" d="M394.641,274.201c-3.046,8.538,0.163,14.207-3.926,21.443
			c4.542-5.181,1.547-11.896,5.515-20.684 M398.254,250.085l1.71,46.793l1.709-46.795"/>
	</g>
	<g transform="rotate(45 400,250)">
		<path id="ray2_2_" fill="#85340A" d="M385.787,270.309c-6.082,6.723-5.287,13.188-11.833,18.309
			c6.179-3.049,5.982-10.398,13.011-16.999 M398.354,249.411l-16.327,43.886l19.486-42.579"/>
	</g>
	<g transform="rotate(67.5 400,250)">
		<path id="ray2_3_" fill="#85340A" d="M379.098,263.323c-8.191,3.884-9.931,10.16-17.939,12.387
			c6.875-0.452,9.506-7.318,18.525-10.726 M398.705,248.826l-31.878,34.297l34.297-31.881"/>
	</g>
</g>
<g>
	<g id="rays_1_">
		<path id="ray1_4_" fill="#F6B40E" stroke="#85340A" stroke-width="1.1116" d="M398.69,246.84l-61.992,28.454
			c0,0-1.185,0.489-0.859,1.28c0.327,0.79,1.512,0.299,1.512,0.299l63.956-23.715 M377.187,252.479
			c-9.428-0.348-14.613,5.452-23.032,4.693c-8.42-0.757-13.18,3.867-16.454,4.939c-3.274,1.074-5.232-1.16-5.698-0.197
			c-0.466,0.963,2.121,3.07,6.775,2.383c4.655-0.687,6.037-4.221,16.32-3.39c10.283,0.83,12.678-4.206,22.058-2.979"/>
		<g transform="rotate(22.5 400,250)">
			<path id="ray1_5_" fill="#F6B40E" stroke="#85340A" stroke-width="1.1116" d="M399.999,246.579l-68.162,2.565
				c0,0-1.282-0.001-1.283,0.854c0,0.855,1.282,0.854,1.282,0.854l68.163,2.565 M377.975,243.559
				c-8.578-3.928-15.587-0.555-23.075-4.477c-7.489-3.921-13.657-1.471-17.092-1.733c-3.436-0.262-4.39-3.074-5.188-2.364
				c-0.799,0.712,0.784,3.648,5.348,4.795s7.192-1.589,16.375,3.114c9.183,4.702,13.322,0.966,21.52,5.688"/>
		</g>
		<g transform="rotate(45 400,250)">
			<path id="ray1_6_" fill="#F6B40E" stroke="#85340A" stroke-width="1.1116" d="M401.309,246.839l-63.956-23.715
				c0,0-1.184-0.492-1.512,0.298c-0.328,0.79,0.857,1.28,0.857,1.28l61.993,28.455 M382.117,235.621
				c-6.421-6.911-14.188-6.477-19.605-12.966c-5.418-6.489-12.054-6.585-15.127-8.142c-3.074-1.557-2.88-4.52-3.89-4.169
				c-1.011,0.352-0.671,3.67,3.106,6.477c3.777,2.806,7.253,1.284,13.937,9.143c6.685,7.858,11.939,5.991,17.705,13.49"/>
		</g>
		<g transform="rotate(67.5 400,250)">
			<path id="ray1_7_" fill="#F6B40E" stroke="#85340A" stroke-width="1.1116" d="M402.418,247.581l-50.011-46.384
				c0,0-0.906-0.908-1.511-0.304c-0.605,0.604,0.303,1.511,0.303,1.511l46.384,50.012 M388.98,229.872
				c-3.288-8.843-10.629-11.414-13.151-19.482c-2.523-8.068-8.617-10.697-10.86-13.311c-2.245-2.614-0.93-5.278-1.998-5.34
				c-1.068-0.062-2.025,3.134,0.391,7.172c2.416,4.038,6.209,3.962,9.377,13.781c3.168,9.818,8.738,10.104,11.195,19.238"/>
		</g>
		<path id="ray2_4_" fill="#85340A" d="M375.59,254.311c-9.054,0.453-13.063,5.586-21.314,4.578
			c6.525,2.213,11.583-3.123,21.22-2.82 M399.253,248.42l-42.577,19.487l43.887-16.329"/>
		<g transform="rotate(22.5 400,250)">
			<path id="ray2_5_" fill="#85340A" d="M375.799,244.641c-8.538-3.046-14.207,0.163-21.444-3.926
				c5.181,4.542,11.896,1.547,20.684,5.515 M399.915,248.254l-46.793,1.71l46.795,1.709"/>
		</g>
		<g transform="rotate(45 400,250)">
			<path id="ray2_6_" fill="#85340A" d="M379.692,235.787c-6.723-6.082-13.188-5.287-18.309-11.833
				c3.049,6.179,10.399,5.982,16.999,13.011 M400.589,248.354l-43.886-16.327l42.579,19.486"/>
		</g>
		<g transform="rotate(90 400,250)">
			<path id="ray2_7_" fill="#85340A" d="M386.677,229.098c-3.884-8.191-10.16-9.931-12.387-17.939
				c0.452,6.875,7.318,9.506,10.726,18.525 M401.174,248.705l-34.297-31.878l31.881,34.297"/>
		</g>
	</g>
	<g>
		<g id="rays_2_">
			<path id="ray1_8_" fill="#F6B40E" stroke="#85340A" stroke-width="1.1116" d="M403.16,248.69l-28.454-61.992
				c0,0-0.49-1.185-1.28-0.859c-0.79,0.327-0.299,1.512-0.299,1.512l23.715,63.956 M397.522,227.187
				c0.347-9.428-5.453-14.613-4.694-23.032c0.757-8.42-3.868-13.18-4.94-16.454c-1.073-3.274,1.16-5.232,0.198-5.698
				c-0.963-0.466-3.07,2.121-2.383,6.775c0.687,4.655,4.22,6.037,3.39,16.32c-0.83,10.283,4.206,12.678,2.98,22.058"/>
			<g transform="rotate(22.5 400,250)">
				<path id="ray1_9_" fill="#F6B40E" stroke="#85340A" stroke-width="1.1116" d="M403.421,249.999l-2.565-68.162
					c0,0,0.002-1.282-0.854-1.283c-0.855,0-0.854,1.282-0.854,1.282l-2.565,68.163 M406.441,227.975
					c3.928-8.577,0.555-15.587,4.477-23.075c3.922-7.489,1.471-13.657,1.732-17.092c0.262-3.436,3.074-4.39,2.364-5.188
					c-0.712-0.799-3.647,0.784-4.795,5.348s1.589,7.192-3.114,16.375c-4.701,9.183-0.965,13.323-5.688,21.52"/>
			</g>
			<g transform="rotate(45 400,250)">
				<path id="ray1_10_" fill="#F6B40E" stroke="#85340A" stroke-width="1.1116" d="M403.16,251.309l23.716-63.956
					c0,0,0.491-1.184-0.298-1.512c-0.79-0.328-1.28,0.857-1.28,0.857l-28.455,61.993 M414.379,232.117
					c6.912-6.421,6.478-14.188,12.967-19.605c6.489-5.418,6.585-12.054,8.142-15.127c1.557-3.074,4.521-2.88,4.17-3.89
					c-0.352-1.011-3.671-0.671-6.477,3.106c-2.806,3.777-1.284,7.253-9.143,13.937c-7.858,6.685-5.991,11.939-13.491,17.705"/>
			</g>
			<g transform="rotate(67.5 400,250)">
				<path id="ray1_11_" fill="#F6B40E" stroke="#85340A" stroke-width="1.1116" d="M402.42,252.418l46.384-50.011
					c0,0,0.907-0.906,0.304-1.511c-0.604-0.605-1.511,0.303-1.511,0.303l-50.013,46.384 M420.129,238.98
					c8.842-3.288,11.413-10.629,19.481-13.151c8.069-2.523,10.697-8.617,13.312-10.86c2.614-2.245,5.278-0.93,5.34-1.998
					c0.063-1.068-3.134-2.025-7.172,0.391c-4.037,2.416-3.962,6.209-13.78,9.377c-9.817,3.168-10.104,8.738-19.238,11.195"/>
			</g>
			<path id="ray2_8_" fill="#85340A" d="M395.69,225.59c-0.453-9.054-5.586-13.063-4.579-21.314
				c-2.213,6.525,3.123,11.583,2.82,21.22 M401.58,249.253l-19.487-42.577l16.329,43.887"/>
			<g transform="rotate(22.5 400,250)">
				<path id="ray2_9_" fill="#85340A" d="M405.359,225.799c3.046-8.538-0.162-14.207,3.926-21.444
					c-4.541,5.181-1.547,11.896-5.515,20.684 M401.746,249.915l-1.71-46.793l-1.709,46.795"/>
			</g>
			<g transform="rotate(45 400,250)">
				<path id="ray2_10_" fill="#85340A" d="M414.213,229.692c6.082-6.723,5.287-13.188,11.834-18.309
					c-6.18,3.049-5.982,10.399-13.012,16.999 M401.646,250.589l16.327-43.886l-19.486,42.579"/>
			</g>
			<g transform="rotate(180 400,250)">
				<path id="ray2_11_" fill="#85340A" d="M420.902,236.677c8.191-3.884,9.931-10.16,17.939-12.387
					c-6.875,0.452-9.506,7.318-18.525,10.726 M401.295,251.174l31.879-34.297l-34.298,31.881"/>
			</g>
		</g>
		<g>
			<g id="rays_3_">
				<path id="ray1_12_" fill="#F6B40E" stroke="#85340A" stroke-width="1.1116" d="M401.311,253.16l61.991-28.454
					c0,0,1.186-0.49,0.859-1.28c-0.327-0.79-1.512-0.299-1.512-0.299l-63.957,23.715 M422.813,247.522
					c9.428,0.347,14.612-5.453,23.031-4.694c8.42,0.757,13.181-3.868,16.454-4.94c3.274-1.073,5.232,1.16,5.698,0.198
					c0.467-0.963-2.12-3.07-6.775-2.383c-4.655,0.687-6.037,4.22-16.32,3.39c-10.283-0.83-12.678,4.206-22.058,2.98"/>
				<g transform="rotate(22.5 400,250)">
					<path id="ray1_13_" fill="#F6B40E" stroke="#85340A" stroke-width="1.1116" d="M400.001,253.421l68.162-2.565
						c0,0,1.282,0.002,1.283-0.854c0-0.855-1.282-0.854-1.282-0.854l-68.163-2.565 M422.024,256.441
						c8.578,3.928,15.588,0.555,23.075,4.477c7.489,3.922,13.657,1.471,17.092,1.732c3.437,0.262,4.391,3.074,5.189,2.364
						c0.799-0.712-0.785-3.647-5.349-4.795c-4.563-1.147-7.191,1.589-16.375-3.114c-9.182-4.701-13.322-0.965-21.519-5.688"/>
				</g>
				<g transform="rotate(45 400,250)">
					<path id="ray1_14_" fill="#F6B40E" stroke="#85340A" stroke-width="1.1116" d="M398.692,253.16l63.955,23.716
						c0,0,1.185,0.491,1.513-0.298c0.328-0.79-0.857-1.28-0.857-1.28l-61.993-28.455 M417.883,264.379
						c6.422,6.912,14.189,6.478,19.606,12.967c5.418,6.489,12.054,6.586,15.127,8.143c3.074,1.557,2.88,4.52,3.89,4.169
						c1.011-0.352,0.671-3.671-3.106-6.477c-3.776-2.806-7.253-1.284-13.937-9.144c-6.685-7.857-11.938-5.99-17.704-13.49"/>
				</g>
				<g transform="rotate(67.5 400,250)">
					<path id="ray1_15_" fill="#F6B40E" stroke="#85340A" stroke-width="1.1116" d="M397.582,252.42l50.011,46.384
						c0,0,0.906,0.907,1.512,0.304c0.604-0.604-0.303-1.512-0.303-1.512l-46.384-50.012 M411.02,270.129
						c3.287,8.842,10.63,11.414,13.15,19.482c2.523,8.068,8.617,10.696,10.86,13.311c2.245,2.614,0.931,5.278,1.998,5.34
						c1.068,0.063,2.024-3.134-0.391-7.172c-2.416-4.037-6.21-3.962-9.378-13.78c-3.168-9.817-8.737-10.104-11.194-19.238"/>
				</g>
				<path id="ray2_12_" fill="#85340A" d="M424.41,245.69c9.054-0.453,13.063-5.586,21.313-4.579
					c-6.524-2.213-11.583,3.123-21.22,2.82 M400.747,251.58l42.577-19.487l-43.887,16.329"/>
				<g transform="rotate(22.5 400,250)">
					<path id="ray2_13_" fill="#85340A" d="M424.201,255.359c8.538,3.046,14.207-0.162,21.444,3.926
						c-5.182-4.541-11.897-1.547-20.685-5.515 M400.085,251.746l46.793-1.71l-46.795-1.709"/>
				</g>
				<g transform="rotate(45 400,250)">
					<path id="ray2_14_" fill="#85340A" d="M420.309,264.213c6.722,6.082,13.187,5.287,18.309,11.834
						c-3.049-6.18-10.399-5.982-16.999-13.012 M399.411,251.646l43.886,16.327l-42.579-19.486"/>
				</g>
				<g transform="rotate(270 400,250)">
					<path id="ray2_15_" fill="#85340A" d="M413.323,270.902c3.884,8.191,10.16,9.931,12.387,17.939
						c-0.452-6.875-7.318-9.506-10.726-18.525 M398.826,251.295l34.297,31.879l-31.881-34.298"/>
				</g>
			</g>
			<circle fill="#F6B40E" stroke="#85340A" stroke-width="1.5" cx="400" cy="250" r="27.778"/>
			<path id="loweyecontour" fill="#843511" d="M409.471,244.06c-1.897,0-3.714,0.822-4.781,2.531
				c2.137,1.922,6.855,2.132,10.062-0.219C413.362,244.877,411.366,244.06,409.471,244.06L409.471,244.06z M409.439,244.498
				c1.846-0.034,3.571,0.814,3.813,1.656c-2.137,2.35-5.551,2.146-7.688,0.438C406.498,245.096,408.003,244.523,409.439,244.498
				L409.439,244.498z"/>
			<g transform="matrix(-1 0 0 1 800.25 0)">
				<path id="uppalpebra" fill="#85340A" d="M409.83,242.74c-2.777,0-3.419,0.642-4.701,1.71c-1.283,1.068-1.923,0.854-2.137,1.068
					c-0.212,0.214,0,0.854,0.427,0.64s1.284-0.64,2.563-1.708c1.283-1.07,2.563-1.068,3.846-1.068c3.848,0,5.984,3.205,6.41,2.991
					c0.427-0.214-2.137-3.633-6.41-3.633L409.83,242.74z"/>
			</g>
			<g transform="matrix(-1 0 0 1 800.25 0)">
				<path id="eyebrow_nose" fill="#85340A" d="M417.52,244.02c-4.914-4.273-11.109-4.915-14.529-1.708
					c-0.838,1.121-1.373,2.319-1.594,3.569c-0.43,2.433,0.33,5.063,2.236,7.756c-0.215-0.001-0.643,0.213-0.856,0.427
					c-1.696-3.244-2.296-6.576-1.739-9.745c0.145-0.828,0.373-1.643,0.669-2.436c4.7-3.845,11.11-4.273,15.812,2.138H417.52z"/>
			</g>
			<g transform="translate(18.862)">
				<circle id="pupil" fill="#85340A" cx="409.402" cy="246.15" r="1.923"/>
			</g>
			<g transform="matrix(-1 0 0 1 800.25 0)">
				<path id="lowpalpebra" fill="#85340A" d="M414.96,247.44c-3.633,2.778-7.265,2.564-9.401,1.282s-2.137-1.709-1.711-1.709
					c0.428,0,0.854,0.427,2.564,1.281c1.709,0.856,4.272,0.856,8.545-0.854L414.96,247.44z"/>
			</g>
			<path fill="#85340A" d="M395.75,253.84c-0.914,0.167-1.563,0.978-1.563,1.906c0,1.062,0.877,1.906,1.938,1.906
				c0.626,0,1.203-0.297,1.563-0.813c0.74,0.557,1.765,0.615,2.313,0.625c0.084,0.002,0.193,0,0.25,0
				c0.548-0.01,1.573-0.068,2.313-0.625c0.359,0.516,0.936,0.813,1.563,0.813c1.061,0,1.938-0.845,1.938-1.906
				c0-0.929-0.649-1.739-1.563-1.906c0.514,0.182,0.844,0.677,0.844,1.219c0,0.707-0.571,1.281-1.281,1.281
				c-0.68,0-1.241-0.54-1.281-1.219c-0.209,0.416-1.034,1.655-2.656,1.719c-1.622-0.063-2.447-1.303-2.656-1.719
				c-0.04,0.679-0.601,1.219-1.281,1.219c-0.71,0-1.281-0.574-1.281-1.281C394.907,254.517,395.237,254.021,395.75,253.84
				L395.75,253.84z"/>
			<path fill="#85340A" d="M397.84,259.529c-2.138,0-2.983,1.938-4.906,3.22c1.069-0.427,1.91-1.27,3.406-2.125
				c1.496-0.854,2.772,0.188,3.625,0.188h0.031c0.854,0,2.129-1.042,3.625-0.188c1.496,0.855,2.369,1.698,3.438,2.125
				c-1.924-1.282-2.799-3.22-4.938-3.22c-0.427,0-1.271,0.231-2.125,0.656h-0.031C399.112,259.76,398.267,259.529,397.84,259.529z"
				/>
			<path fill="#85340A" d="M397.12,262.061c-0.844,0.037-1.96,0.206-3.563,0.688c3.847-0.855,4.696,0.438,6.406,0.438h0.031
				c1.71,0,2.559-1.293,6.405-0.438c-4.273-1.283-5.123-0.438-6.405-0.438h-0.031C399.163,262.311,398.526,261.998,397.12,262.061
				L397.12,262.061z"/>
			<path fill="#85340A" d="M393.75,262.721c-0.248,0.002-0.519,0.004-0.813,0.03c4.488,0.428,2.331,3,7.031,3H400
				c4.701,0,2.574-2.572,7.063-3c-4.701-0.427-3.215,2.345-7.063,2.345h-0.031C396.361,265.096,397.473,262.674,393.75,262.721
				L393.75,262.721z"/>
			<path fill="#85340A" d="M403.85,269.66c0-2.123-1.723-3.847-3.846-3.847c-2.124,0-3.847,1.724-3.847,3.847
				c0.423-1.781,2.017-3.039,3.847-3.039C401.837,266.621,403.428,267.879,403.85,269.66L403.85,269.66L403.85,269.66z"/>
			<path id="eyebrow_nose_1_" fill="#85340A" d="M382.73,244.02c4.915-4.273,11.11-4.915,14.53-1.708
				c0.837,1.121,1.374,2.319,1.594,3.569c0.43,2.433-0.331,5.063-2.237,7.756c0.215-0.001,0.644,0.213,0.857,0.427
				c1.697-3.244,2.296-6.576,1.74-9.745c-0.146-0.828-0.374-1.643-0.669-2.436c-4.701-3.845-11.11-4.273-15.811,2.138H382.73z"/>
			<path id="uppalpebra_1_" fill="#85340A" d="M390.42,242.74c2.777,0,3.419,0.642,4.701,1.71c1.283,1.068,1.923,0.854,2.137,1.068
				c0.212,0.214,0,0.854-0.426,0.64c-0.427-0.214-1.284-0.64-2.563-1.708c-1.283-1.07-2.563-1.068-3.846-1.068
				c-3.847,0-5.983,3.205-6.41,2.991c-0.427-0.214,2.137-3.633,6.41-3.633L390.42,242.74z"/>
			<g transform="translate(-19.181)">
				<path id="loweyecontour_1_" fill="#843511" d="M390.289,244.06c-1.897,0-3.713,0.822-4.781,2.531
					c2.137,1.922,6.856,2.132,10.062-0.219C394.182,244.877,392.186,244.06,390.289,244.06L390.289,244.06z M390.258,244.498
					c1.846-0.034,3.572,0.814,3.813,1.656c-2.137,2.35-5.551,2.146-7.688,0.438C387.317,245.096,388.822,244.523,390.258,244.498
					L390.258,244.498z"/>
			</g>
			<circle id="pupil_1_" fill="#85340A" cx="390.54" cy="246.15" r="1.923"/>
			<path id="lowpalpebra_1_" fill="#85340A" d="M385.29,247.44c3.633,2.778,7.265,2.564,9.402,1.282s2.137-1.709,1.71-1.709
				s-0.854,0.427-2.563,1.281c-1.71,0.856-4.273,0.856-8.546-0.854L385.29,247.44z"/>
		</g>
	</g>
</g>
</svg>
