<?xml version="1.0" encoding="utf-8"?>
<!-- Generator: Adobe Illustrator 16.0.0, SVG Export Plug-In . SVG Version: 6.00 Build 0)  -->
<!DOCTYPE svg PUBLIC "-//W3C//DTD SVG 1.1//EN" "http://www.w3.org/Graphics/SVG/1.1/DTD/svg11.dtd">
<svg version="1.1" id="Capa_1" xmlns="http://www.w3.org/2000/svg" xmlns:xlink="http://www.w3.org/1999/xlink" x="0px" y="0px"
	 width="600px" height="600px" viewBox="150 0 600 600" enable-background="new 150 0 600 600" xml:space="preserve">
<path fill="#FFFFFF" d="M0,0h900v600H0V0z"/>
<path fill="#072357" d="M0,300h450v300H0V300z"/>
<path fill="#DA121A" d="M450,0h450v300H450V0z"/>
<path fill="#DA121A" d="M675,375l16.84,51.822l54.49,0.002l-44.082,32.029l16.836,51.823L675,478.65l-44.084,32.026l16.836-51.823
	l-44.081-32.029l54.489-0.002L675,375z"/>
<path fill="#072357" d="M225,75l16.84,51.822l54.49,0.002l-44.082,32.03l16.836,51.823L225,178.65l-44.084,32.027l16.836-51.823
	l-44.081-32.03l54.489-0.002L225,75z"/>
</svg>
