<svg width="42" height="41" viewBox="0 0 42 41" fill="none" xmlns="http://www.w3.org/2000/svg">
<path d="M32.0315 7.54023C30.6962 7.54023 29.5966 8.63985 29.5966 9.9751C29.5966 11.3103 30.6962 12.41 32.0315 12.41C33.3667 12.41 34.4663 11.3103 34.4663 9.9751C34.3878 8.63985 33.3667 7.54023 32.0315 7.54023ZM21.2709 10.682C15.6943 10.682 11.1387 15.2375 11.1387 20.8142C11.1387 26.3908 15.6943 30.9464 21.2709 30.9464C26.8476 30.9464 31.4031 26.3908 31.4031 20.8142C31.4031 15.2375 26.8476 10.682 21.2709 10.682ZM21.2709 27.2548C17.6579 27.2548 14.7518 24.3487 14.7518 20.7356C14.7518 17.1226 17.6579 14.2165 21.2709 14.2165C24.884 14.2165 27.7901 17.1226 27.7901 20.7356C27.7901 24.3487 24.884 27.2548 21.2709 27.2548ZM41.6924 12.3314C41.6924 5.49808 36.1943 0 29.361 0H13.0238C6.19047 0 0.692383 5.49808 0.692383 12.3314V28.6686C0.692383 35.5019 6.19047 41 13.0238 41H29.361C36.1943 41 41.6924 35.5019 41.6924 28.6686V12.3314ZM37.8437 28.6686C37.8437 33.3812 34.0736 37.1513 29.361 37.1513H13.0238C8.31116 37.1513 4.54104 33.3812 4.54104 28.6686V12.3314C4.54104 7.61877 8.31116 3.84866 13.0238 3.84866H29.361C34.0736 3.84866 37.8437 7.61877 37.8437 12.3314V28.6686Z" fill="white"/>
</svg>
