<svg width="34" height="30" viewBox="0 0 34 30" fill="none" xmlns="http://www.w3.org/2000/svg">
<path d="M0 24V27.4C0 28.0896 0.273928 28.7509 0.761522 29.2385C1.24912 29.7261 1.91044 30 2.6 30H31.34C32.0296 30 32.6909 29.7261 33.1785 29.2385C33.6661 28.7509 33.94 28.0896 33.94 27.4V24H0ZM32 27.4C32 27.5591 31.9368 27.7117 31.8243 27.8243C31.7117 27.9368 31.5591 28 31.4 28H2.56C2.40087 28 2.24826 27.9368 2.13574 27.8243C2.02321 27.7117 1.96 27.5591 1.96 27.4V25.53H11.91C12.035 25.825 12.2437 26.0769 12.5103 26.2546C12.7768 26.4323 13.0896 26.5281 13.41 26.53H20.54C20.8604 26.5281 21.1732 26.4323 21.4397 26.2546C21.7063 26.0769 21.915 25.825 22.04 25.53H32V27.4Z" fill="#2C96FB"/>
<path d="M21.5 5C21.5011 4.66548 21.5245 4.33141 21.57 4H4.5C4.10218 4 3.72064 4.15804 3.43934 4.43934C3.15804 4.72064 3 5.10218 3 5.5V22H5V6H21.57C21.5245 5.66859 21.5011 5.33452 21.5 5Z" fill="#2C96FB"/>
<path d="M29 12.5V22H31V12.22C30.349 12.4032 29.6762 12.4974 29 12.5Z" fill="#2C96FB"/>
<path d="M22.13 8H7V21.88H8.6V9.6H23.08C22.6981 9.10823 22.3789 8.57075 22.13 8Z" fill="#2C96FB"/>
<path d="M29 10C31.7614 10 34 7.76142 34 5C34 2.23858 31.7614 0 29 0C26.2386 0 24 2.23858 24 5C24 7.76142 26.2386 10 29 10Z" fill="#CD362F"/>
</svg>
