<svg width="42" height="40" viewBox="0 0 42 40" fill="none" xmlns="http://www.w3.org/2000/svg">
<path d="M41.4616 24.256V38.9225C41.4616 39.2986 41.1795 39.5806 40.8035 39.5806H33.2822C32.9061 39.5806 32.6241 39.2986 32.6241 38.9225V25.2902C32.6241 21.7176 31.3078 19.2732 28.1113 19.2732C25.6669 19.2732 24.1626 20.9654 23.5985 22.4697C23.4105 23.0338 23.3165 23.7859 23.3165 24.6321V38.8285C23.3165 39.2046 23.0344 39.4866 22.6584 39.4866H15.1371C14.761 39.4866 14.4789 39.2046 14.4789 38.8285C14.4789 35.1619 14.573 17.5809 14.4789 13.4442C14.4789 13.0681 14.761 12.786 15.1371 12.786H22.6584C23.0344 12.786 23.3165 13.0681 23.3165 13.4442V16.5467C23.3165 16.5467 23.3165 16.6407 23.2224 16.6407H23.3165V16.5467C24.5387 14.7604 26.607 12.1279 31.3078 12.1279C37.1368 12.2219 41.4616 16.0766 41.4616 24.256ZM1.31668 39.5806H8.83798C9.21404 39.5806 9.49609 39.2986 9.49609 38.9225V13.5382C9.49609 13.1621 9.21404 12.8801 8.83798 12.8801H1.31668C0.940618 12.8801 0.658569 13.1621 0.658569 13.5382V38.9225C0.658569 39.2986 0.940618 39.5806 1.31668 39.5806Z" fill="white"/>
<path d="M4.79529 9.40162C7.39148 9.40162 9.4961 7.29699 9.4961 4.70081C9.4961 2.10462 7.39148 0 4.79529 0C2.19911 0 0.0944824 2.10462 0.0944824 4.70081C0.0944824 7.29699 2.19911 9.40162 4.79529 9.40162Z" fill="white"/>
</svg>
