<svg width="20" height="17" viewBox="0 0 20 17" fill="none" xmlns="http://www.w3.org/2000/svg">
<path d="M0.0883652 15.7963C-0.0294551 15.5606 -0.0294551 15.4428 0.0883652 15.0894L5.5081 0.950918C5.62592 0.597457 5.86156 0.361816 6.33284 0.361816H9.04271C9.27835 0.361816 9.51399 0.479637 9.63181 0.597457C9.74963 0.715277 9.74963 0.950918 9.74963 1.18656L5.5081 15.4428C5.39028 15.7963 5.03682 16.0319 4.56554 16.0319H0.677467C0.441826 16.0319 0.206186 15.9141 0.0883652 15.7963ZM10.2209 15.7963C10.1031 15.5606 10.1031 15.4428 10.2209 15.0894L15.6406 0.950918C15.7585 0.597457 16.1119 0.361816 16.4654 0.361816H19.1753C19.4109 0.361816 19.6465 0.479637 19.7644 0.597457C20 0.715277 20 0.950918 20 1.18656L15.7585 15.4428C15.6406 15.7963 15.2872 16.0319 14.8159 16.0319H10.81C10.5744 16.0319 10.3387 15.9141 10.2209 15.7963Z" fill="#000027"/>
</svg>
