<svg width="68" height="68" viewBox="0 0 68 68" fill="none" xmlns="http://www.w3.org/2000/svg">
<path fill-rule="evenodd" clip-rule="evenodd" d="M57.8 9.9C51.4 3.5 43 0 34 0C15.4 0 0.299999 15.1 0.299999 33.7C0.299999 39.6 1.8 45.4 4.8 50.5L0 68L17.9 63.3C22.8 66 28.4 67.4 34 67.4C52.6 67.4 67.7 52.3 67.7 33.7C67.7 24.8 64.2 16.3 57.8 9.9ZM34 61.8C29 61.8 24 60.4 19.7 57.9L18.7 57.3L8.1 60.1L10.9 49.8L10.2 48.7C7.4 44.2 5.9 39.1 5.9 33.8C5.9 18.4 18.5 5.8 33.9 5.8C41.4 5.8 48.4 8.7 53.7 14C59 19.3 61.9 26.3 61.9 33.8C62 49.2 49.4 61.8 34 61.8ZM49.3 40.8C50.1 41.2 50.7 41.4 50.9 41.8C51.1 42.2 51.1 43.8 50.4 45.8C49.7 47.8 46.3 49.6 44.7 49.8C43.3 50 41.5 50.1 39.5 49.4C38.3 49 36.7 48.5 34.7 47.6C26.3 44 20.7 35.5 20.3 34.9C19.9 34.3 16.9 30.3 16.9 26.2C16.9 22.1 19.1 20 19.8 19.2C20.6 18.4 21.5 18.1 22 18.1C22.6 18.1 23.1 18.1 23.6 18.1C24.1 18.1 24.8 17.9 25.5 19.5C26.2 21.2 27.9 25.3 28.1 25.7C28.3 26.1 28.5 26.6 28.2 27.2C27.9 27.8 27.8 28.1 27.4 28.6C27 29.1 26.5 29.7 26.1 30.1C25.7 30.5 25.2 31 25.7 31.8C26.2 32.6 27.9 35.4 30.4 37.6C33.6 40.5 36.3 41.4 37.2 41.8C38 42.2 38.5 42.2 39 41.6C39.5 41 41.1 39.1 41.7 38.3C42.3 37.5 42.8 37.6 43.6 37.9C44.3 38.3 48.5 40.4 49.3 40.8Z" fill="white"/>
</svg>
